<svg preserveAspectRatio="none" overflow="visible" style="display: block;" width="156.021" height="32.9786" viewBox="0 0 156.021 32.9786" fill="none" xmlns="http://www.w3.org/2000/svg">
<g id="Group">
<path id="Vector" d="M18.0224 15.5901L14.4948 15.5181C13.3128 15.4821 12.8946 14.1858 12.9491 13.2316C12.9855 12.5115 13.04 11.9174 13.4401 11.3953C13.731 11.0172 14.4402 10.7472 15.0403 10.7472L21.9138 10.7652C22.9685 10.8012 23.8413 11.5934 23.8413 12.6735L23.8049 21.8192C19.8408 25.0418 14.6948 26.41 9.73056 25.3118C5.89375 24.4657 2.69338 21.9272 1.12956 18.3626C-0.543359 14.5459 -0.325152 10.1891 1.56598 6.51643C3.14798 3.36586 6.03922 1.45751 9.43962 0.61136C13.8583 -0.486839 18.3679 0.215288 22.3684 2.33967C23.314 2.84376 24.0777 3.94196 23.3685 4.93214L22.1866 6.58844C21.6047 7.39859 20.5682 7.54262 19.7135 7.14655C17.6769 6.21038 15.5131 5.63427 13.2764 5.88632C10.8398 6.15637 8.63953 7.4346 7.65759 9.667C6.14833 13.1416 7.11208 18.0745 11.1489 19.3888C13.9674 20.3069 18.0224 19.6048 18.0224 18.2906V15.5901Z" fill="white"/>
<path id="Vector_2" d="M72.0471 23.9988L67.2465 16.7974L63.9734 16.8695L63.9552 23.4587C63.9552 24.3948 63.0642 25.259 62.1368 25.241L59.8093 25.223C58.591 25.223 58.0273 24.1788 58.0273 23.0806V2.39482C58.0273 1.1886 58.6273 0.0543957 60.0093 0.072399L69.0285 0.126409C71.647 0.144412 74.1564 1.27862 75.793 3.27698C78.666 6.80562 77.975 13.5749 73.0108 15.5552L77.1931 21.7123C77.9387 22.8105 76.9749 24.1968 75.9021 24.6109C75.2111 25.0969 74.5746 25.367 73.7382 25.277C73.0654 25.187 72.5017 24.6829 72.0471 23.9988ZM71.0833 10.4243C71.447 9.21806 71.4834 8.10186 71.1924 6.94965C70.7015 6.1215 69.9014 5.31135 68.8467 5.29335L63.9188 5.22134V11.9906L68.683 11.9726C69.7377 11.9546 70.6105 11.4145 71.0833 10.4243Z" fill="white"/>
<path id="Vector_3" d="M145.528 11.557L145.419 23.6192C145.401 25.0234 143.783 25.3115 142.71 25.3115C141.473 25.3115 139.964 24.9334 139.964 23.4571L139.928 13.6454C139.928 12.2951 139.018 11.1969 137.618 11.1609C136.764 11.1429 135.964 11.2509 135.036 11.449L135.054 23.2951C135.054 24.1773 134.509 25.1494 133.527 25.1855L131.272 25.2575C130.345 25.2755 129.472 24.4473 129.472 23.4571L129.49 8.08235C133.127 6.57007 138.218 5.6159 141.51 7.59626C141.91 7.8123 142.528 7.86631 142.91 7.65027C144.583 6.76811 146.31 6.48006 148.183 6.49806C152.147 6.51606 155.857 9.10854 155.911 13.0332L156.02 22.935C156.039 23.9792 155.675 25.0234 154.457 25.2035C153.766 25.3115 152.82 25.2935 152.093 25.2035C151.056 25.0774 150.456 24.2493 150.456 23.2771L150.438 13.7534C150.438 12.5472 149.656 11.521 148.492 11.3049C147.51 11.1069 146.656 11.2149 145.528 11.557Z" fill="white"/>
<path id="Vector_4" d="M37.5886 28.1221C39.5525 25.1156 41.0799 28.8243 45.5896 28.3742C47.3716 28.1941 48.7354 26.9159 48.3171 25.0076L45.6441 25.3316C41.28 25.8537 37.0067 23.2432 37.0067 18.5804C37.0067 16.8881 36.8976 15.2318 37.0613 13.5395C37.3522 10.4789 39.5707 8.1025 42.571 7.47239C46.3533 6.68024 50.1173 7.25635 53.8632 8.71461V24.3234C53.8632 27.7981 52.754 31.2907 49.3536 32.3529C47.4079 32.965 45.335 33.073 43.2802 32.911C40.9345 32.731 37.0977 31.3987 37.0067 29.8144C36.9158 29.2023 37.225 28.6802 37.5886 28.1221ZM44.4803 20.6868C45.8259 20.9568 47.1352 20.8668 48.2444 20.1467L48.2626 12.1892C45.8987 11.7752 42.7529 11.7212 42.7165 13.5935L42.6074 18.5984C42.5892 19.6786 43.3529 20.4707 44.4803 20.6868Z" fill="white"/>
<path id="Vector_5" d="M98.8322 19.4997C99.1231 14.2068 104.887 13.8647 109.906 14.3508C110.197 13.3606 109.924 11.7763 108.742 11.3442C106.888 10.6601 104.815 11.0922 103.033 11.7043C101.942 12.0824 101.251 11.4523 100.741 10.5701C100.323 9.84996 99.8505 8.49972 100.832 7.94161C103.869 6.2313 107.542 5.96125 110.906 6.82541C113.598 7.52754 115.489 9.68793 115.507 12.5324L115.652 24.5406C112.161 25.5488 108.761 25.9629 105.233 25.5668L102.087 24.7747C99.8687 23.8565 98.7049 21.8401 98.8322 19.4997ZM110.015 21.03L109.997 17.9334C107.651 17.6094 104.578 17.4473 104.506 19.4277C104.415 21.4441 107.633 21.7141 110.015 21.03Z" fill="white"/>
<path id="Vector_6" d="M87.8127 21.0818C92.6133 21.8019 94.0316 17.9312 96.05 20.8478C96.3774 21.3158 96.7047 21.8559 96.6319 22.396C96.5592 22.9001 96.1228 23.3502 95.6318 23.6563C92.1041 25.8707 87.8673 26.2848 83.9759 24.6825C81.9757 23.8543 80.2118 22.054 80.1573 19.8576L80.0118 13.5384C79.9573 10.7119 81.612 8.26347 84.285 7.20128C86.7581 6.2111 89.5038 6.17509 92.0496 6.94923C94.6317 7.74138 96.3774 9.86576 96.6138 12.5122C96.7774 14.2946 96.7592 15.9689 96.5956 17.8052L85.6852 17.8232C85.2488 19.2815 86.1943 20.8478 87.8127 21.0818ZM91.2495 14.4206C91.3586 13.4664 91.3586 12.3502 90.613 11.6121C89.6129 10.6399 87.7945 10.5499 86.6489 11.324C85.6488 11.9902 85.4852 13.2504 85.667 14.3846L91.2495 14.4206Z" fill="white"/>
<path id="Vector_7" d="M123.616 25.1866C121.525 25.5286 119.598 25.0786 119.598 23.4403L119.616 1.71031C119.616 0.306056 121.234 0 122.325 0C123.416 0 125.18 0.252046 125.18 1.69231L125.216 23.2602C125.235 24.1784 124.58 25.0245 123.616 25.1866Z" fill="white"/>
<path id="Vector_8" d="M33.4609 23.2793C33.4609 24.7736 31.8425 25.1517 30.6606 25.1517C29.5332 25.1517 27.7693 24.8816 27.7693 23.4594L27.7148 11.7572C27.7148 10.7671 28.624 9.9029 29.5695 9.9209L31.7516 9.95691C32.7517 9.97491 33.4973 10.9111 33.4973 11.8653L33.4609 23.2793Z" fill="white"/>
<path id="Vector_9" d="M30.3877 7.45427C28.733 7.34625 27.5874 6.05001 27.5329 4.64576C27.4783 3.06147 28.6603 1.78324 30.2968 1.6032C32.1516 1.40517 33.679 2.6834 33.6972 4.44772C33.7154 6.15803 32.3698 7.58029 30.3877 7.45427Z" fill="white"/>
</g>
</svg>
