<svg preserveAspectRatio="none" overflow="visible" style="display: block;" width="14" height="14" viewBox="0 0 14 14" fill="none" xmlns="http://www.w3.org/2000/svg">
<g id="play">
<path id="Vector" d="M3.07874 2.33235C2.97592 2.51002 2.92181 2.71167 2.92188 2.91694V11.0831C2.92181 11.2883 2.97592 11.49 3.07874 11.6676C3.18156 11.8453 3.32945 11.9927 3.50747 12.095C3.68549 12.1972 3.88734 12.2507 4.09265 12.25C4.29795 12.2493 4.49943 12.1945 4.67676 12.091L11.6776 8.00793C11.8541 7.90515 12.0005 7.75787 12.1021 7.58081C12.2038 7.40374 12.2573 7.20309 12.2571 6.99891C12.2569 6.79474 12.2031 6.59418 12.1011 6.41729C11.9991 6.2404 11.8525 6.09337 11.6759 5.9909L4.67676 1.909C4.49943 1.80555 4.29795 1.7507 4.09265 1.75001C3.88734 1.74931 3.68549 1.80279 3.50747 1.90503C3.32945 2.00728 3.18156 2.15468 3.07874 2.33235Z" fill="white"/>
</g>
</svg>
